<?xml version="1.0" encoding="UTF-8" standalone="no"?>
<!-- Created with Inkscape (http://www.inkscape.org/) -->

<svg
   width="1198.1869"
   height="1027.0309"
   viewBox="0 0 1198.1869 1027.0309"
   version="1.1"
   id="svg5"
   sodipodi:docname="front-board.svg"
   inkscape:version="1.1.2 (b8e25be833, 2022-02-05)"
   xmlns:inkscape="http://www.inkscape.org/namespaces/inkscape"
   xmlns:sodipodi="http://sodipodi.sourceforge.net/DTD/sodipodi-0.dtd"
   xmlns="http://www.w3.org/2000/svg"
   xmlns:svg="http://www.w3.org/2000/svg">
  <sodipodi:namedview
     id="namedview7"
     pagecolor="#ffffff"
     bordercolor="#999999"
     borderopacity="1"
     inkscape:pageshadow="0"
     inkscape:pageopacity="0"
     inkscape:pagecheckerboard="0"
     inkscape:document-units="px"
     showgrid="false"
     inkscape:zoom="0.44164069"
     inkscape:cx="333.98191"
     inkscape:cy="593.24244"
     inkscape:window-width="1920"
     inkscape:window-height="1017"
     inkscape:window-x="-8"
     inkscape:window-y="-8"
     inkscape:window-maximized="1"
     inkscape:current-layer="layer1"
     fit-margin-top="0"
     fit-margin-left="0"
     fit-margin-right="0"
     fit-margin-bottom="0"
     showguides="false" />
  <defs
     id="defs2">
    <filter
       inkscape:label="Button"
       inkscape:menu="Bevels"
       inkscape:menu-tooltip="Soft bevel, slightly depressed middle"
       style="color-interpolation-filters:sRGB"
       id="filter32456"
       x="-0.21442403"
       y="-0.24070944"
       width="1.4288481"
       height="1.4814188">
      <feGaussianBlur
         stdDeviation="2.3"
         in="SourceAlpha"
         result="result0"
         id="feGaussianBlur32430" />
      <feMorphology
         in="SourceAlpha"
         radius="6.6"
         result="result1"
         id="feMorphology32432" />
      <feGaussianBlur
         stdDeviation="8.9"
         in="result1"
         id="feGaussianBlur32434" />
      <feColorMatrix
         values="1 0 0 0 0 0 1 0 0 0 0 0 1 0 0 0 0 0 0.3 0"
         result="result91"
         id="feColorMatrix32436" />
      <feComposite
         in="result0"
         operator="out"
         result="result2"
         in2="result91"
         id="feComposite32438" />
      <feGaussianBlur
         stdDeviation="1.7"
         result="result4"
         id="feGaussianBlur32440" />
      <feDiffuseLighting
         surfaceScale="10"
         id="feDiffuseLighting32444">
        <feDistantLight
           azimuth="225"
           elevation="45"
           id="feDistantLight32442" />
      </feDiffuseLighting>
      <feBlend
         in2="SourceGraphic"
         mode="multiply"
         id="feBlend32446" />
      <feComposite
         in2="SourceAlpha"
         operator="in"
         result="result3"
         id="feComposite32448" />
      <feSpecularLighting
         in="result4"
         surfaceScale="5"
         specularExponent="17.89999962"
         id="feSpecularLighting32452">
        <feDistantLight
           azimuth="225"
           elevation="45"
           id="feDistantLight32450" />
      </feSpecularLighting>
      <feComposite
         in2="result3"
         operator="atop"
         id="feComposite32454" />
    </filter>
    <filter
       inkscape:label="Button"
       inkscape:menu="Bevels"
       inkscape:menu-tooltip="Soft bevel, slightly depressed middle"
       style="color-interpolation-filters:sRGB"
       id="filter32484"
       x="-0.21442403"
       y="-0.20018233"
       width="1.4288481"
       height="1.4003648">
      <feGaussianBlur
         stdDeviation="2.3"
         in="SourceAlpha"
         result="result0"
         id="feGaussianBlur32458" />
      <feMorphology
         in="SourceAlpha"
         radius="6.6"
         result="result1"
         id="feMorphology32460" />
      <feGaussianBlur
         stdDeviation="8.9"
         in="result1"
         id="feGaussianBlur32462" />
      <feColorMatrix
         values="1 0 0 0 0 0 1 0 0 0 0 0 1 0 0 0 0 0 0.3 0"
         result="result91"
         id="feColorMatrix32464" />
      <feComposite
         in="result0"
         operator="out"
         result="result2"
         in2="result91"
         id="feComposite32466" />
      <feGaussianBlur
         stdDeviation="1.7"
         result="result4"
         id="feGaussianBlur32468" />
      <feDiffuseLighting
         surfaceScale="10"
         id="feDiffuseLighting32472">
        <feDistantLight
           azimuth="225"
           elevation="45"
           id="feDistantLight32470" />
      </feDiffuseLighting>
      <feBlend
         in2="SourceGraphic"
         mode="multiply"
         id="feBlend32474" />
      <feComposite
         in2="SourceAlpha"
         operator="in"
         result="result3"
         id="feComposite32476" />
      <feSpecularLighting
         in="result4"
         surfaceScale="5"
         specularExponent="17.89999962"
         id="feSpecularLighting32480">
        <feDistantLight
           azimuth="225"
           elevation="45"
           id="feDistantLight32478" />
      </feSpecularLighting>
      <feComposite
         in2="result3"
         operator="atop"
         id="feComposite32482" />
    </filter>
    <filter
       inkscape:label="Button"
       inkscape:menu="Bevels"
       inkscape:menu-tooltip="Soft bevel, slightly depressed middle"
       style="color-interpolation-filters:sRGB"
       id="filter32512"
       x="-0.46915531"
       y="-1.1525245"
       width="1.9383106"
       height="3.3050489">
      <feGaussianBlur
         stdDeviation="2.3"
         in="SourceAlpha"
         result="result0"
         id="feGaussianBlur32486" />
      <feMorphology
         in="SourceAlpha"
         radius="6.6"
         result="result1"
         id="feMorphology32488" />
      <feGaussianBlur
         stdDeviation="8.9"
         in="result1"
         id="feGaussianBlur32490" />
      <feColorMatrix
         values="1 0 0 0 0 0 1 0 0 0 0 0 1 0 0 0 0 0 0.3 0"
         result="result91"
         id="feColorMatrix32492" />
      <feComposite
         in="result0"
         operator="out"
         result="result2"
         in2="result91"
         id="feComposite32494" />
      <feGaussianBlur
         stdDeviation="1.7"
         result="result4"
         id="feGaussianBlur32496" />
      <feDiffuseLighting
         surfaceScale="10"
         id="feDiffuseLighting32500">
        <feDistantLight
           azimuth="225"
           elevation="45"
           id="feDistantLight32498" />
      </feDiffuseLighting>
      <feBlend
         in2="SourceGraphic"
         mode="multiply"
         id="feBlend32502" />
      <feComposite
         in2="SourceAlpha"
         operator="in"
         result="result3"
         id="feComposite32504" />
      <feSpecularLighting
         in="result4"
         surfaceScale="5"
         specularExponent="17.89999962"
         id="feSpecularLighting32508">
        <feDistantLight
           azimuth="225"
           elevation="45"
           id="feDistantLight32506" />
      </feSpecularLighting>
      <feComposite
         in2="result3"
         operator="atop"
         id="feComposite32510" />
    </filter>
    <filter
       inkscape:label="Button"
       inkscape:menu="Bevels"
       inkscape:menu-tooltip="Soft bevel, slightly depressed middle"
       style="color-interpolation-filters:sRGB"
       id="filter32540"
       x="-0.21442403"
       y="-0.20196655"
       width="1.4288481"
       height="1.403933">
      <feGaussianBlur
         stdDeviation="2.3"
         in="SourceAlpha"
         result="result0"
         id="feGaussianBlur32514" />
      <feMorphology
         in="SourceAlpha"
         radius="6.6"
         result="result1"
         id="feMorphology32516" />
      <feGaussianBlur
         stdDeviation="8.9"
         in="result1"
         id="feGaussianBlur32518" />
      <feColorMatrix
         values="1 0 0 0 0 0 1 0 0 0 0 0 1 0 0 0 0 0 0.3 0"
         result="result91"
         id="feColorMatrix32520" />
      <feComposite
         in="result0"
         operator="out"
         result="result2"
         in2="result91"
         id="feComposite32522" />
      <feGaussianBlur
         stdDeviation="1.7"
         result="result4"
         id="feGaussianBlur32524" />
      <feDiffuseLighting
         surfaceScale="10"
         id="feDiffuseLighting32528">
        <feDistantLight
           azimuth="225"
           elevation="45"
           id="feDistantLight32526" />
      </feDiffuseLighting>
      <feBlend
         in2="SourceGraphic"
         mode="multiply"
         id="feBlend32530" />
      <feComposite
         in2="SourceAlpha"
         operator="in"
         result="result3"
         id="feComposite32532" />
      <feSpecularLighting
         in="result4"
         surfaceScale="5"
         specularExponent="17.89999962"
         id="feSpecularLighting32536">
        <feDistantLight
           azimuth="225"
           elevation="45"
           id="feDistantLight32534" />
      </feSpecularLighting>
      <feComposite
         in2="result3"
         operator="atop"
         id="feComposite32538" />
    </filter>
    <filter
       inkscape:label="Button"
       inkscape:menu="Bevels"
       inkscape:menu-tooltip="Soft bevel, slightly depressed middle"
       style="color-interpolation-filters:sRGB"
       id="filter32568"
       x="-0.46915489"
       y="-1.1525245"
       width="1.9383098"
       height="3.3050489">
      <feGaussianBlur
         stdDeviation="2.3"
         in="SourceAlpha"
         result="result0"
         id="feGaussianBlur32542" />
      <feMorphology
         in="SourceAlpha"
         radius="6.6"
         result="result1"
         id="feMorphology32544" />
      <feGaussianBlur
         stdDeviation="8.9"
         in="result1"
         id="feGaussianBlur32546" />
      <feColorMatrix
         values="1 0 0 0 0 0 1 0 0 0 0 0 1 0 0 0 0 0 0.3 0"
         result="result91"
         id="feColorMatrix32548" />
      <feComposite
         in="result0"
         operator="out"
         result="result2"
         in2="result91"
         id="feComposite32550" />
      <feGaussianBlur
         stdDeviation="1.7"
         result="result4"
         id="feGaussianBlur32552" />
      <feDiffuseLighting
         surfaceScale="10"
         id="feDiffuseLighting32556">
        <feDistantLight
           azimuth="225"
           elevation="45"
           id="feDistantLight32554" />
      </feDiffuseLighting>
      <feBlend
         in2="SourceGraphic"
         mode="multiply"
         id="feBlend32558" />
      <feComposite
         in2="SourceAlpha"
         operator="in"
         result="result3"
         id="feComposite32560" />
      <feSpecularLighting
         in="result4"
         surfaceScale="5"
         specularExponent="17.89999962"
         id="feSpecularLighting32564">
        <feDistantLight
           azimuth="225"
           elevation="45"
           id="feDistantLight32562" />
      </feSpecularLighting>
      <feComposite
         in2="result3"
         operator="atop"
         id="feComposite32566" />
    </filter>
    <filter
       inkscape:label="Button"
       inkscape:menu="Bevels"
       inkscape:menu-tooltip="Soft bevel, slightly depressed middle"
       style="color-interpolation-filters:sRGB"
       id="filter32596"
       x="-0.030244179"
       y="-0.035284407"
       width="1.0604883"
       height="1.0705688">
      <feGaussianBlur
         stdDeviation="2.3"
         in="SourceAlpha"
         result="result0"
         id="feGaussianBlur32570" />
      <feMorphology
         in="SourceAlpha"
         radius="6.6"
         result="result1"
         id="feMorphology32572" />
      <feGaussianBlur
         stdDeviation="8.9"
         in="result1"
         id="feGaussianBlur32574" />
      <feColorMatrix
         values="1 0 0 0 0 0 1 0 0 0 0 0 1 0 0 0 0 0 0.3 0"
         result="result91"
         id="feColorMatrix32576" />
      <feComposite
         in="result0"
         operator="out"
         result="result2"
         in2="result91"
         id="feComposite32578" />
      <feGaussianBlur
         stdDeviation="1.7"
         result="result4"
         id="feGaussianBlur32580" />
      <feDiffuseLighting
         surfaceScale="10"
         id="feDiffuseLighting32584">
        <feDistantLight
           azimuth="225"
           elevation="45"
           id="feDistantLight32582" />
      </feDiffuseLighting>
      <feBlend
         in2="SourceGraphic"
         mode="multiply"
         id="feBlend32586" />
      <feComposite
         in2="SourceAlpha"
         operator="in"
         result="result3"
         id="feComposite32588" />
      <feSpecularLighting
         in="result4"
         surfaceScale="5"
         specularExponent="17.89999962"
         id="feSpecularLighting32592">
        <feDistantLight
           azimuth="225"
           elevation="45"
           id="feDistantLight32590" />
      </feSpecularLighting>
      <feComposite
         in2="result3"
         operator="atop"
         id="feComposite32594" />
    </filter>
    <filter
       inkscape:label="Button"
       inkscape:menu="Bevels"
       inkscape:menu-tooltip="Soft bevel, slightly depressed middle"
       style="color-interpolation-filters:sRGB"
       id="filter32624"
       x="-0.68704021"
       y="-0.054036871"
       width="2.3740804"
       height="1.1080737">
      <feGaussianBlur
         stdDeviation="2.3"
         in="SourceAlpha"
         result="result0"
         id="feGaussianBlur32598" />
      <feMorphology
         in="SourceAlpha"
         radius="6.6"
         result="result1"
         id="feMorphology32600" />
      <feGaussianBlur
         stdDeviation="8.9"
         in="result1"
         id="feGaussianBlur32602" />
      <feColorMatrix
         values="1 0 0 0 0 0 1 0 0 0 0 0 1 0 0 0 0 0 0.3 0"
         result="result91"
         id="feColorMatrix32604" />
      <feComposite
         in="result0"
         operator="out"
         result="result2"
         in2="result91"
         id="feComposite32606" />
      <feGaussianBlur
         stdDeviation="1.7"
         result="result4"
         id="feGaussianBlur32608" />
      <feDiffuseLighting
         surfaceScale="10"
         id="feDiffuseLighting32612">
        <feDistantLight
           azimuth="225"
           elevation="45"
           id="feDistantLight32610" />
      </feDiffuseLighting>
      <feBlend
         in2="SourceGraphic"
         mode="multiply"
         id="feBlend32614" />
      <feComposite
         in2="SourceAlpha"
         operator="in"
         result="result3"
         id="feComposite32616" />
      <feSpecularLighting
         in="result4"
         surfaceScale="5"
         specularExponent="17.89999962"
         id="feSpecularLighting32620">
        <feDistantLight
           azimuth="225"
           elevation="45"
           id="feDistantLight32618" />
      </feSpecularLighting>
      <feComposite
         in2="result3"
         operator="atop"
         id="feComposite32622" />
    </filter>
    <filter
       inkscape:label="Button"
       inkscape:menu="Bevels"
       inkscape:menu-tooltip="Soft bevel, slightly depressed middle"
       style="color-interpolation-filters:sRGB"
       id="filter32652"
       x="-0.69055814"
       y="-1.1889766"
       width="2.3811162"
       height="3.3779533">
      <feGaussianBlur
         stdDeviation="2.3"
         in="SourceAlpha"
         result="result0"
         id="feGaussianBlur32626" />
      <feMorphology
         in="SourceAlpha"
         radius="6.6"
         result="result1"
         id="feMorphology32628" />
      <feGaussianBlur
         stdDeviation="8.9"
         in="result1"
         id="feGaussianBlur32630" />
      <feColorMatrix
         values="1 0 0 0 0 0 1 0 0 0 0 0 1 0 0 0 0 0 0.3 0"
         result="result91"
         id="feColorMatrix32632" />
      <feComposite
         in="result0"
         operator="out"
         result="result2"
         in2="result91"
         id="feComposite32634" />
      <feGaussianBlur
         stdDeviation="1.7"
         result="result4"
         id="feGaussianBlur32636" />
      <feDiffuseLighting
         surfaceScale="10"
         id="feDiffuseLighting32640">
        <feDistantLight
           azimuth="225"
           elevation="45"
           id="feDistantLight32638" />
      </feDiffuseLighting>
      <feBlend
         in2="SourceGraphic"
         mode="multiply"
         id="feBlend32642" />
      <feComposite
         in2="SourceAlpha"
         operator="in"
         result="result3"
         id="feComposite32644" />
      <feSpecularLighting
         in="result4"
         surfaceScale="5"
         specularExponent="17.89999962"
         id="feSpecularLighting32648">
        <feDistantLight
           azimuth="225"
           elevation="45"
           id="feDistantLight32646" />
      </feSpecularLighting>
      <feComposite
         in2="result3"
         operator="atop"
         id="feComposite32650" />
    </filter>
    <filter
       inkscape:label="Button"
       inkscape:menu="Bevels"
       inkscape:menu-tooltip="Soft bevel, slightly depressed middle"
       style="color-interpolation-filters:sRGB"
       id="filter32680"
       x="-0.68704021"
       y="-0.054036871"
       width="2.3740804"
       height="1.1080737">
      <feGaussianBlur
         stdDeviation="2.3"
         in="SourceAlpha"
         result="result0"
         id="feGaussianBlur32654" />
      <feMorphology
         in="SourceAlpha"
         radius="6.6"
         result="result1"
         id="feMorphology32656" />
      <feGaussianBlur
         stdDeviation="8.9"
         in="result1"
         id="feGaussianBlur32658" />
      <feColorMatrix
         values="1 0 0 0 0 0 1 0 0 0 0 0 1 0 0 0 0 0 0.3 0"
         result="result91"
         id="feColorMatrix32660" />
      <feComposite
         in="result0"
         operator="out"
         result="result2"
         in2="result91"
         id="feComposite32662" />
      <feGaussianBlur
         stdDeviation="1.7"
         result="result4"
         id="feGaussianBlur32664" />
      <feDiffuseLighting
         surfaceScale="10"
         id="feDiffuseLighting32668">
        <feDistantLight
           azimuth="225"
           elevation="45"
           id="feDistantLight32666" />
      </feDiffuseLighting>
      <feBlend
         in2="SourceGraphic"
         mode="multiply"
         id="feBlend32670" />
      <feComposite
         in2="SourceAlpha"
         operator="in"
         result="result3"
         id="feComposite32672" />
      <feSpecularLighting
         in="result4"
         surfaceScale="5"
         specularExponent="17.89999962"
         id="feSpecularLighting32676">
        <feDistantLight
           azimuth="225"
           elevation="45"
           id="feDistantLight32674" />
      </feSpecularLighting>
      <feComposite
         in2="result3"
         operator="atop"
         id="feComposite32678" />
    </filter>
    <filter
       inkscape:label="Garden of Delights"
       inkscape:menu="Overlays"
       inkscape:menu-tooltip="Phantasmagorical turbulent wisps, like Hieronymus Bosch's Garden of Delights"
       x="-4.1729717e-10"
       width="1"
       y="-4.8684027e-10"
       height="1"
       style="color-interpolation-filters:sRGB"
       id="filter10241">
      <feTurbulence
         result="result1"
         baseFrequency="0.005 0.01"
         numOctaves="8"
         type="fractalNoise"
         seed="20"
         id="feTurbulence10217" />
      <feColorMatrix
         result="result3"
         values="0 0 0 0 1 0 0 0 0 1 0 0 0 0 1 0 0 0 1.2 -0.4 "
         id="feColorMatrix10219" />
      <feConvolveMatrix
         order="3 3"
         kernelMatrix="3 0 0 0 2 0 0 0 -1 "
         targetX="1"
         targetY="1"
         divisor="2"
         result="result8"
         id="feConvolveMatrix10221" />
      <feComposite
         result="fbSourceGraphic"
         in2="SourceGraphic"
         operator="atop"
         in="result8"
         id="feComposite10223" />
      <feTurbulence
         baseFrequency="0.027 0.025"
         numOctaves="7"
         type="turbulence"
         seed="20"
         id="feTurbulence10225" />
      <feColorMatrix
         values="1 0 0 0 0 0 1 0 0 0 0 0 1 0 0 0 0 0 4.7 -2 "
         result="result5"
         id="feColorMatrix10227" />
      <feComposite
         in2="result5"
         operator="in"
         in="fbSourceGraphic"
         result="result6"
         id="feComposite10229" />
      <feDisplacementMap
         in2="result5"
         result="result4"
         scale="48"
         yChannelSelector="A"
         xChannelSelector="R"
         in="result6"
         id="feDisplacementMap10231" />
      <feFlood
         flood-color="rgb(222,217,217)"
         flood-opacity="1"
         id="feFlood10233" />
      <feComposite
         in2="result4"
         operator="in"
         result="result2"
         id="feComposite10235" />
      <feComposite
         in2="fbSourceGraphic"
         operator="atop"
         in="result2"
         result="result91"
         id="feComposite10237" />
      <feBlend
         mode="darken"
         in2="result91"
         id="feBlend10239" />
    </filter>
    <filter
       inkscape:label="Button"
       inkscape:menu="Bevels"
       inkscape:menu-tooltip="Soft bevel, slightly depressed middle"
       style="color-interpolation-filters:sRGB;"
       id="filter1115"
       x="-0.025839041"
       y="-0.030145149"
       width="1.0516781"
       height="1.0602903">
      <feGaussianBlur
         stdDeviation="2.3"
         in="SourceAlpha"
         result="result0"
         id="feGaussianBlur1089" />
      <feMorphology
         in="SourceAlpha"
         radius="6.6"
         result="result1"
         id="feMorphology1091" />
      <feGaussianBlur
         stdDeviation="8.9"
         in="result1"
         id="feGaussianBlur1093" />
      <feColorMatrix
         values="1 0 0 0 0 0 1 0 0 0 0 0 1 0 0 0 0 0 0.3 0"
         result="result91"
         id="feColorMatrix1095" />
      <feComposite
         in="result0"
         operator="out"
         result="result2"
         in2="result91"
         id="feComposite1097" />
      <feGaussianBlur
         stdDeviation="1.7"
         result="result4"
         id="feGaussianBlur1099" />
      <feDiffuseLighting
         surfaceScale="10"
         id="feDiffuseLighting1103">
        <feDistantLight
           azimuth="225"
           elevation="45"
           id="feDistantLight1101" />
      </feDiffuseLighting>
      <feBlend
         in2="SourceGraphic"
         mode="multiply"
         id="feBlend1105" />
      <feComposite
         in2="SourceAlpha"
         operator="in"
         result="result3"
         id="feComposite1107" />
      <feSpecularLighting
         in="result4"
         surfaceScale="5"
         specularExponent="17.9"
         id="feSpecularLighting1111">
        <feDistantLight
           azimuth="225"
           elevation="45"
           id="feDistantLight1109" />
      </feSpecularLighting>
      <feComposite
         in2="result3"
         operator="atop"
         id="feComposite1113" />
    </filter>
    <filter
       inkscape:label="Raised Border"
       inkscape:menu="Bevels"
       inkscape:menu-tooltip="Strongly raised border around a flat surface"
       height="1.028042"
       width="1.0240363"
       y="-0.014021"
       x="-0.012018159"
       style="color-interpolation-filters:sRGB;"
       id="filter1204">
      <feGaussianBlur
         stdDeviation="4"
         result="result1"
         id="feGaussianBlur1182" />
      <feComposite
         in="result1"
         in2="result1"
         result="result4"
         operator="in"
         id="feComposite1184" />
      <feGaussianBlur
         stdDeviation="2"
         result="result6"
         in="result4"
         id="feGaussianBlur1186" />
      <feComposite
         operator="xor"
         in="result6"
         in2="result4"
         result="result8"
         id="feComposite1188" />
      <feComposite
         operator="atop"
         result="fbSourceGraphic"
         in="result4"
         in2="result8"
         id="feComposite1190" />
      <feSpecularLighting
         specularExponent="10"
         specularConstant="1.3"
         surfaceScale="3"
         lighting-color="rgb(255,255,255)"
         result="result1"
         in="fbSourceGraphic"
         id="feSpecularLighting1194">
        <feDistantLight
           azimuth="235"
           elevation="55"
           id="feDistantLight1192" />
      </feSpecularLighting>
      <feComposite
         operator="atop"
         result="result2"
         in="result1"
         in2="fbSourceGraphic"
         id="feComposite1196" />
      <feComposite
         k3="1"
         k2="1"
         operator="arithmetic"
         result="result4"
         in="fbSourceGraphic"
         in2="result2"
         id="feComposite1198" />
      <feComposite
         operator="over"
         in="result4"
         in2="SourceGraphic"
         id="feComposite1200" />
      <feBlend
         mode="multiply"
         in2="result2"
         id="feBlend1202" />
    </filter>
  </defs>
  <g
     inkscape:label="Capa 1"
     inkscape:groupmode="layer"
     id="layer1"
     transform="translate(-202.07572,-122.3544)">
    <path
       id="rect31"
       style="fill:#d9cda5;stroke:#000000;stroke-width:0;stroke-miterlimit:4;stroke-dasharray:none;paint-order:fill markers stroke;filter:url(#filter1204);fill-opacity:1"
       d="M 202.07572,122.3544 V 1149.3853 H 1400.2626 V 122.3544 Z m 85.58478,30.95609 c 30.17048,2.4e-4 54.62843,24.4582 54.62867,54.62869 -2.4e-4,30.17048 -24.45819,54.62842 -54.62867,54.62866 -30.17048,-2.4e-4 -54.62843,-24.45819 -54.62868,-54.62866 2.5e-4,-30.17049 24.45819,-54.62845 54.62868,-54.62869 z m 171.16955,0 c 30.17047,2.4e-4 54.62843,24.4582 54.62867,54.62869 -2.4e-4,30.17048 -24.4582,54.62842 -54.62867,54.62866 -30.17048,-2.4e-4 -54.62843,-24.45819 -54.62868,-54.62866 2.5e-4,-30.17049 24.45819,-54.62845 54.62868,-54.62869 z m 171.16954,0 c 30.17048,2.4e-4 54.62844,24.4582 54.62868,54.62869 -2.4e-4,30.17048 -24.4582,54.62842 -54.62868,54.62866 -30.17048,-2.4e-4 -54.62842,-24.45819 -54.62867,-54.62866 2.5e-4,-30.17049 24.45818,-54.62845 54.62867,-54.62869 z m 171.16956,0 c 30.17049,2.4e-4 54.62842,24.4582 54.62866,54.62869 -2.4e-4,30.17047 -24.45819,54.62842 -54.62866,54.62866 -30.17049,-2.4e-4 -54.62844,-24.45818 -54.62869,-54.62866 2.5e-4,-30.17049 24.4582,-54.62845 54.62869,-54.62869 z m 171.16956,0 c 30.17049,2.7e-4 54.62839,24.45821 54.62869,54.62869 -3e-4,30.17046 -24.4582,54.62839 -54.62869,54.62866 -30.17047,-2.4e-4 -54.62844,-24.45818 -54.62867,-54.62866 2.3e-4,-30.17049 24.4582,-54.62845 54.62867,-54.62869 z m 171.16949,0 c 30.1705,2.3e-4 54.6284,24.45819 54.6286,54.62869 -2e-4,30.17049 -24.4581,54.62843 -54.6286,54.62866 -30.1705,-2.9e-4 -54.6283,-24.45821 -54.6287,-54.62866 4e-4,-30.17046 24.4581,-54.6284 54.6287,-54.62869 z m 171.1695,0 c 30.1706,2.3e-4 54.6285,24.45819 54.6288,54.62869 -3e-4,30.17049 -24.4582,54.62843 -54.6288,54.62866 -30.1705,-2.3e-4 -54.6284,-24.45817 -54.6286,-54.62866 2e-4,-30.1705 24.4581,-54.62846 54.6286,-54.62869 z M 287.6605,324.48233 c 30.17048,2.5e-4 54.62843,24.45819 54.62867,54.62868 -2.4e-4,30.17048 -24.45819,54.62843 -54.62867,54.62867 -30.17049,-2.4e-4 -54.62843,-24.45819 -54.62868,-54.62867 2.5e-4,-30.17048 24.4582,-54.62843 54.62868,-54.62868 z m 171.16955,0 c 30.17047,2.5e-4 54.62843,24.45819 54.62867,54.62868 -2.4e-4,30.17048 -24.4582,54.62843 -54.62867,54.62867 -30.17049,-2.4e-4 -54.62843,-24.45819 -54.62868,-54.62867 2.5e-4,-30.17048 24.4582,-54.62843 54.62868,-54.62868 z m 171.16954,0 c 30.17048,2.5e-4 54.62844,24.45819 54.62868,54.62868 -2.4e-4,30.17048 -24.4582,54.62843 -54.62868,54.62867 -30.17049,-2.4e-4 -54.62842,-24.45819 -54.62867,-54.62867 2.5e-4,-30.17048 24.45819,-54.62843 54.62867,-54.62868 z m 171.16956,0 c 30.17047,2.5e-4 54.62842,24.4582 54.62866,54.62868 -2.4e-4,30.17048 -24.45817,54.62843 -54.62866,54.62867 -30.17049,-2.4e-4 -54.62844,-24.45819 -54.62869,-54.62867 2.5e-4,-30.17049 24.4582,-54.62843 54.62869,-54.62868 z m 171.16956,0 c 30.17049,2.7e-4 54.62839,24.45821 54.62869,54.62868 -3e-4,30.17047 -24.4582,54.62841 -54.62869,54.62867 -30.17047,-2.4e-4 -54.62844,-24.45819 -54.62867,-54.62867 2.3e-4,-30.17049 24.4582,-54.62843 54.62867,-54.62868 z m 171.16949,0 c 30.1705,2.4e-4 54.6284,24.45818 54.6286,54.62868 -2e-4,30.17049 -24.4581,54.62844 -54.6286,54.62867 -30.1706,-2.9e-4 -54.6283,-24.45823 -54.6287,-54.62867 4e-4,-30.17046 24.4582,-54.62839 54.6287,-54.62868 z m 171.1695,0 c 30.1706,2.4e-4 54.6285,24.45818 54.6288,54.62868 -3e-4,30.17049 -24.4582,54.62844 -54.6288,54.62867 -30.1705,-2.3e-4 -54.6284,-24.45818 -54.6286,-54.62867 2e-4,-30.1705 24.4581,-54.62844 54.6286,-54.62868 z M 629.99959,495.65416 c 30.17048,2.5e-4 54.62844,24.4582 54.62868,54.62869 -2.4e-4,30.17048 -24.4582,54.62842 -54.62868,54.62867 -30.17048,-2.5e-4 -54.62842,-24.4582 -54.62867,-54.62867 2.5e-4,-30.17049 24.45818,-54.62844 54.62867,-54.62869 z m 171.16956,0 c 30.17049,2.5e-4 54.62842,24.4582 54.62866,54.62869 -2.4e-4,30.17047 -24.45819,54.62842 -54.62866,54.62867 -30.17049,-2.5e-4 -54.62844,-24.45819 -54.62869,-54.62867 2.5e-4,-30.17049 24.4582,-54.62844 54.62869,-54.62869 z m 171.16956,0 c 30.17049,2.7e-4 54.62839,24.45822 54.62869,54.62869 -3e-4,30.17045 -24.4582,54.6284 -54.62869,54.62867 -30.17047,-2.5e-4 -54.62844,-24.45819 -54.62867,-54.62867 2.3e-4,-30.17049 24.4582,-54.62844 54.62867,-54.62869 z m 171.16949,0 c 30.1705,2.4e-4 54.6284,24.45819 54.6286,54.62869 -2e-4,30.1705 -24.4581,54.62843 -54.6286,54.62867 -30.1705,-3e-4 -54.6283,-24.45823 -54.6287,-54.62867 4e-4,-30.17045 24.4581,-54.6284 54.6287,-54.62869 z m 171.1695,0 c 30.1706,2.4e-4 54.6285,24.45819 54.6288,54.62869 -3e-4,30.1705 -24.4582,54.62843 -54.6288,54.62867 -30.1705,-2.4e-4 -54.6284,-24.45817 -54.6286,-54.62867 2e-4,-30.1705 24.4581,-54.62845 54.6286,-54.62869 z m -852.22876,1.65057 c 32.31928,0.62918 57.51195,36.56062 47.59892,67.33254 -8.06125,32.51303 -48.65487,49.01257 -77.15364,32.23403 -31.37432,-16.01308 -36.72148,-64.1952 -9.49874,-86.55865 9.8042,-8.69997 22.90418,-12.96624 35.9055,-12.95763 1.05644,-0.0545 2.10541,-0.0705 3.14796,-0.0503 z m -171.36843,0.005 c 33.84481,0.75341 59.79591,39.94999 46.7279,71.54126 -10.90566,30.58879 -52.95007,45.22 -79.90838,25.75064 -29.04571,-18.30245 -31.58558,-65.76746 -3.38572,-86.11972 9.4284,-7.51246 21.42169,-11.13425 33.26736,-11.12189 1.10714,-0.0572 2.20707,-0.0746 3.29884,-0.0503 z m -3.42001,169.5167 c 30.17048,2.4e-4 54.62843,24.45819 54.62867,54.62867 -2.4e-4,30.17049 -24.45819,54.62845 -54.62867,54.62868 -30.17049,-2.3e-4 -54.62843,-24.45819 -54.62868,-54.62868 2.5e-4,-30.17047 24.4582,-54.62843 54.62868,-54.62867 z m 171.16955,0 c 30.17047,2.4e-4 54.62843,24.45819 54.62867,54.62867 -2.4e-4,30.17049 -24.4582,54.62845 -54.62867,54.62868 -30.17049,-2.3e-4 -54.62843,-24.45819 -54.62868,-54.62868 2.5e-4,-30.17047 24.4582,-54.62843 54.62868,-54.62867 z m 171.16954,0 c 30.17048,2.4e-4 54.62844,24.45819 54.62868,54.62867 -2.4e-4,30.17049 -24.4582,54.62845 -54.62868,54.62868 -30.17049,-2.3e-4 -54.62842,-24.45819 -54.62867,-54.62868 2.5e-4,-30.17047 24.45819,-54.62843 54.62867,-54.62867 z m 171.16956,0 c 30.17047,2.4e-4 54.62842,24.4582 54.62866,54.62867 -2.4e-4,30.17049 -24.45817,54.62845 -54.62866,54.62868 -30.17049,-2.3e-4 -54.62844,-24.45819 -54.62869,-54.62868 2.5e-4,-30.17048 24.4582,-54.62843 54.62869,-54.62867 z m 171.16956,0 c 30.17049,2.7e-4 54.62839,24.45821 54.62869,54.62867 -3e-4,30.17048 -24.4582,54.62841 -54.62869,54.62868 -30.17047,-2.3e-4 -54.62844,-24.45819 -54.62867,-54.62868 2.3e-4,-30.17048 24.4582,-54.62843 54.62867,-54.62867 z m 171.16949,0 c 30.1705,2.3e-4 54.6284,24.45818 54.6286,54.62867 -2e-4,30.1705 -24.4581,54.62846 -54.6286,54.62868 -30.1706,-2.9e-4 -54.6283,-24.45822 -54.6287,-54.62868 4e-4,-30.17045 24.4582,-54.62837 54.6287,-54.62867 z m 171.1695,0 c 30.1706,2.3e-4 54.6285,24.45818 54.6288,54.62867 -3e-4,30.1705 -24.4582,54.62846 -54.6288,54.62868 -30.1705,-2.2e-4 -54.6284,-24.45818 -54.6286,-54.62868 2e-4,-30.17049 24.4581,-54.62844 54.6286,-54.62867 z M 287.6605,837.99784 c 30.17048,2.4e-4 54.62843,24.45819 54.62867,54.62867 -2.4e-4,30.17049 -24.45819,54.62843 -54.62867,54.62868 -30.17048,-2.5e-4 -54.62843,-24.4582 -54.62868,-54.62868 2.5e-4,-30.17048 24.45819,-54.62843 54.62868,-54.62867 z m 171.16955,0 c 30.17047,2.4e-4 54.62843,24.45819 54.62867,54.62867 -2.4e-4,30.17049 -24.4582,54.62843 -54.62867,54.62868 -30.17048,-2.5e-4 -54.62843,-24.4582 -54.62868,-54.62868 2.5e-4,-30.17048 24.45819,-54.62843 54.62868,-54.62867 z m 171.16954,0 c 30.17048,2.4e-4 54.62844,24.45819 54.62868,54.62867 -2.4e-4,30.17049 -24.4582,54.62843 -54.62868,54.62868 -30.17048,-2.5e-4 -54.62842,-24.4582 -54.62867,-54.62868 2.5e-4,-30.17048 24.45818,-54.62843 54.62867,-54.62867 z m 171.16956,0 c 30.17049,2.4e-4 54.62842,24.45819 54.62866,54.62867 -2.4e-4,30.17048 -24.45819,54.62843 -54.62866,54.62868 -30.17049,-2.5e-4 -54.62844,-24.45819 -54.62869,-54.62868 2.5e-4,-30.17048 24.4582,-54.62843 54.62869,-54.62867 z m 171.16956,0 c 30.17049,2.7e-4 54.62839,24.4582 54.62869,54.62867 -3e-4,30.17047 -24.4582,54.62841 -54.62869,54.62868 -30.17047,-2.5e-4 -54.62844,-24.45819 -54.62867,-54.62868 2.3e-4,-30.17048 24.4582,-54.62843 54.62867,-54.62867 z m 171.16949,0 c 30.1705,2.3e-4 54.6284,24.45818 54.6286,54.62867 -2e-4,30.1705 -24.4581,54.62845 -54.6286,54.62868 -30.1705,-2.9e-4 -54.6283,-24.45822 -54.6287,-54.62868 4e-4,-30.17045 24.4581,-54.62838 54.6287,-54.62867 z m 171.1695,0 c 30.1706,2.3e-4 54.6285,24.45818 54.6288,54.62867 -3e-4,30.1705 -24.4582,54.62845 -54.6288,54.62868 -30.1705,-2.3e-4 -54.6284,-24.45818 -54.6286,-54.62868 2e-4,-30.17049 24.4581,-54.62844 54.6286,-54.62867 z M 287.6605,1009.1697 c 30.17048,2e-4 54.62843,24.4581 54.62867,54.6287 -2.4e-4,30.1705 -24.45819,54.6284 -54.62867,54.6287 -30.17048,-3e-4 -54.62843,-24.4583 -54.62868,-54.6287 2.5e-4,-30.1706 24.4582,-54.6285 54.62868,-54.6287 z m 171.16955,0 c 30.17047,2e-4 54.62843,24.4581 54.62867,54.6287 -2.4e-4,30.1705 -24.4582,54.6284 -54.62867,54.6287 -30.17048,-3e-4 -54.62843,-24.4583 -54.62868,-54.6287 2.5e-4,-30.1706 24.4582,-54.6285 54.62868,-54.6287 z m 171.16954,0 c 30.17048,2e-4 54.62844,24.4581 54.62868,54.6287 -2.4e-4,30.1705 -24.4582,54.6284 -54.62868,54.6287 -30.17048,-3e-4 -54.62842,-24.4583 -54.62867,-54.6287 2.5e-4,-30.1706 24.45819,-54.6285 54.62867,-54.6287 z m 171.16956,0 c 30.17047,2e-4 54.62842,24.4581 54.62866,54.6287 -2.4e-4,30.1704 -24.45819,54.6284 -54.62866,54.6287 -30.17049,-3e-4 -54.62844,-24.4582 -54.62869,-54.6287 2.5e-4,-30.1706 24.4582,-54.6285 54.62869,-54.6287 z m 171.16956,0 c 30.17049,2e-4 54.62839,24.4581 54.62869,54.6287 -3e-4,30.1704 -24.4582,54.6284 -54.62869,54.6287 -30.17047,-3e-4 -54.62844,-24.4582 -54.62867,-54.6287 2.3e-4,-30.1706 24.4582,-54.6285 54.62867,-54.6287 z m 171.16949,0 c 30.1705,2e-4 54.6284,24.4581 54.6286,54.6287 -2e-4,30.1705 -24.4581,54.6284 -54.6286,54.6287 -30.1705,-3e-4 -54.6283,-24.4583 -54.6287,-54.6287 4e-4,-30.1705 24.4582,-54.6284 54.6287,-54.6287 z m 171.1695,0 c 30.1706,2e-4 54.6285,24.4581 54.6288,54.6287 -3e-4,30.1705 -24.4582,54.6284 -54.6288,54.6287 -30.1705,-3e-4 -54.6284,-24.4582 -54.6286,-54.6287 2e-4,-30.1706 24.4581,-54.6285 54.6286,-54.6287 z"
       sodipodi:nodetypes="cccccccccccccccccccccccccccccccccccccccccccccccccccccccccccccccccccccccccccccccccccccccccccccccccccccccccsccccccccccccccccccccccccccccccccccccccccccccccccccccccccccccccccccccccccccccccccccccccccccccccccccccccccccccccccc" />
  </g>
</svg>
